<svg width="1077" height="1061" viewBox="0 0 1077 1061" fill="none" xmlns="http://www.w3.org/2000/svg">
<path d="M1076.18 312.046C1076.17 294.214 1071.82 278.458 1063.03 264.939C1054.4 251.638 1041.47 240.492 1024.12 231.68C880.948 159.252 737.635 87.0457 594.507 14.5438C555.921 -5.00021 518.508 -4.28402 480.208 15.5406C423.22 45.0227 137.903 188.435 52.8825 231.64C17.8685 249.426 0.830697 276.642 0.822281 312.012C0.767578 457.669 0.822281 603.327 0.767578 748.984C0.767578 766.423 4.93761 781.877 13.3408 795.193C21.9796 808.893 35.0915 820.345 52.8362 829.356C137.861 872.561 423.216 1015.96 480.191 1045.46C518.508 1065.29 555.921 1066 594.52 1046.45C737.652 973.947 880.973 901.74 1024.17 829.312C1041.91 820.304 1055.02 808.845 1063.66 795.156C1072.05 781.836 1076.23 766.387 1076.23 748.943C1076.23 748.943 1076.23 457.706 1076.18 312.046Z" fill="white"/>
</svg>
