<svg width="400" height="400" viewBox="0 0 400 400" fill="none" xmlns="http://www.w3.org/2000/svg">
<path d="M399.327 117.655C399.323 110.947 397.709 105.02 394.445 99.933C391.239 94.9307 386.437 90.738 379.997 87.4231C326.833 60.1772 273.617 33.0147 220.47 5.74101C206.142 -1.61103 192.25 -1.343 178.028 6.11458C156.867 17.2065 50.9219 71.1553 19.3516 87.4078C6.35 94.0974 0.0234375 104.335 0.0203125 117.642C0 172.435 0.0203125 227.227 0 282.022C0.003125 288.582 1.54844 294.394 4.66875 299.405C7.87656 304.558 12.7453 308.866 19.3344 312.256C50.9062 328.509 156.866 382.453 178.022 393.548C192.25 401.01 206.142 401.276 220.475 393.922C273.623 366.647 326.842 339.485 380.014 312.239C386.603 308.851 391.472 304.54 394.68 299.391C397.795 294.38 399.344 288.568 399.347 282.006C399.347 282.006 399.347 172.449 399.327 117.655" fill="white"/>
<path d="M200.284 199.298L4.6687 299.405C7.87651 304.559 12.7453 308.867 19.3343 312.256C50.9062 328.509 156.866 382.454 178.022 393.548C192.25 401.01 206.142 401.277 220.475 393.922C273.623 366.647 326.842 339.486 380.014 312.24C386.603 308.851 391.472 304.541 394.68 299.391L200.284 199.298" fill="white"/>
<path d="M142.345 228.951C153.728 246.613 175.126 258.526 199.673 258.526C224.372 258.526 245.892 246.462 257.217 228.611L200.284 199.298L142.345 228.951" fill="white"/>
<path d="M399.327 117.655C399.323 110.947 397.709 105.02 394.445 99.9331L200.284 199.298L394.68 299.391C397.795 294.38 399.344 288.568 399.347 282.007C399.347 282.007 399.347 172.449 399.327 117.655" fill="white"/>
<path d="M388.637 206.453H373.447V219.957H358.253V206.453H343.064V192.953H358.253V179.452H373.447V192.953H388.637V206.453ZM333.208 206.453H318.019V219.957H302.828V206.453H287.637V192.953H302.828V179.452H318.019V192.953H333.208V206.453Z" fill="#00EC6D"/>
<path d="M257.217 228.61C245.892 246.461 224.372 258.525 199.673 258.525C175.126 258.525 153.728 246.613 142.345 228.95C136.627 220.088 133.624 210.048 133.636 199.831C133.636 167.416 163.203 141.138 199.673 141.138C224.062 141.138 245.348 152.903 256.787 170.384L314.508 140.843C291.566 105.643 248.733 81.9624 199.673 81.9624C126.43 81.9624 67.0562 134.735 67.0562 199.831C67.0562 221.187 73.4483 241.215 84.6202 258.489C107.505 293.875 150.459 317.701 199.673 317.701C248.978 317.701 292 293.779 314.852 258.289L257.217 228.61Z" fill="#00EC6D"/>
</svg>
