<svg width="375" height="399" viewBox="0 0 375 399" fill="none" xmlns="http://www.w3.org/2000/svg">
<path d="M373.333 118.115C373.33 111.472 371.828 105.602 368.79 100.566C365.806 95.6104 361.336 91.4582 355.341 88.1753C305.857 61.1923 256.325 34.2918 206.857 7.28131C193.521 0.000207424 180.59 0.267026 167.353 7.65266C147.657 18.6362 49.0448 72.0644 19.6598 88.1601C7.55816 94.7866 1.66952 104.926 1.66661 118.103C1.64771 172.367 1.66661 226.632 1.64771 280.896C1.64771 287.393 3.08896 293.151 5.99329 298.111C8.97906 303.215 13.5108 307.482 19.6438 310.839C49.0303 326.935 147.655 380.359 167.347 391.346C180.59 398.736 193.521 399 206.862 391.718C256.331 364.706 305.866 337.805 355.358 310.822C361.49 307.467 366.022 303.197 369.008 298.098C371.908 293.135 373.352 287.38 373.352 280.881C373.352 280.881 373.352 172.381 373.333 118.115Z" fill="white"/>
<path d="M188.069 198.971L5.99341 298.111C8.97918 303.215 13.5109 307.482 19.6439 310.839C49.0304 326.935 147.655 380.359 167.347 391.346C180.59 398.736 193.521 399 206.862 391.718C256.331 364.706 305.866 337.805 355.358 310.822C361.491 307.467 366.022 303.197 369.008 298.098L188.069 198.971Z" fill="white"/>
<path d="M373.333 118.115C373.33 111.472 371.828 105.602 368.79 100.565L188.069 198.972L369.008 298.097C371.908 293.135 373.349 287.379 373.352 280.881C373.352 280.881 373.352 172.381 373.333 118.115Z" fill="white"/>
<path d="M295.269 161.909V180.44H314.864V161.909H324.662V180.44H344.258V189.706H324.662V208.236H344.258V217.502H324.662V236.033H314.864V217.502H295.269V236.033H285.471V217.502H265.876V208.236H285.471V189.706H265.876V180.44H285.471V161.909H295.269ZM314.864 189.705H295.269V208.236H314.864V189.705Z" fill="#00EC6D"/>
<path d="M188.469 68.8417C239.58 68.8417 284.204 95.0916 308.106 134.11L307.873 133.735L247.736 166.479C235.889 147.509 214.17 134.706 189.253 134.442L188.467 134.438C150.472 134.438 119.669 163.568 119.669 199.499C119.657 210.824 122.786 221.954 128.743 231.778C140.602 251.356 162.895 264.561 188.469 264.561C214.2 264.561 236.621 251.188 248.418 231.401L248.132 231.876L308.177 264.771C284.537 303.46 240.524 329.629 190.007 330.15L188.469 330.158C137.196 330.158 92.4455 303.746 68.603 264.521C56.9639 245.372 50.3044 223.172 50.3044 199.499C50.3044 127.339 112.161 68.8403 188.467 68.8403L188.469 68.8417Z" fill="#00EC6D"/>
</svg>
