<svg width="125" height="125" viewBox="0 0 125 125" fill="none" xmlns="http://www.w3.org/2000/svg">
<path d="M62.5 0C27.9688 0 0 28.6952 0 64.086C0 92.4062 17.9062 116.422 42.7344 124.889C45.8594 125.493 47.0052 123.509 47.0052 121.808C47.0052 120.286 46.9531 116.254 46.9271 110.911C29.5417 114.775 25.875 102.314 25.875 102.314C23.0312 94.9171 18.9219 92.9388 18.9219 92.9388C13.2604 88.9661 19.3594 89.0476 19.3594 89.0476C25.6354 89.4932 28.9323 95.6507 28.9323 95.6507C34.5052 105.45 43.5625 102.618 47.1354 100.982C47.6979 96.8355 49.3073 94.0149 51.0938 92.4117C37.2135 90.8084 22.625 85.2976 22.625 60.7437C22.625 53.7492 25.0469 48.0319 29.0573 43.5483C28.3542 41.9287 26.2448 35.4125 29.6042 26.5866C29.6042 26.5866 34.8385 24.8692 46.7917 33.1571C51.7917 31.7332 57.1042 31.0267 62.4167 30.9941C67.7292 31.0267 73.0417 31.7332 78.0417 33.1571C89.9167 24.8692 95.151 26.5866 95.151 26.5866C98.5104 35.4125 96.401 41.9287 95.776 43.5483C99.7604 48.0319 102.182 53.7492 102.182 60.7437C102.182 85.3629 87.5729 90.7812 73.6667 92.3573C75.8542 94.2812 77.8854 98.2105 77.8854 104.216C77.8854 112.792 77.8073 119.683 77.8073 121.764C77.8073 123.444 78.901 125.449 82.1042 124.808C107.109 116.395 125 92.3627 125 64.086C125 28.6952 97.0156 0 62.5 0Z" fill="url(#paint0_linear_43_18)"/>
<defs>
<linearGradient id="paint0_linear_43_18" x1="62.5" y1="0" x2="62.5" y2="125" gradientUnits="userSpaceOnUse">
<stop stop-color="#00EC6D"/>
<stop offset="1" stop-color="#001974"/>
</linearGradient>
</defs>
</svg>
