<svg width="125" height="125" viewBox="0 0 125 125" fill="none" xmlns="http://www.w3.org/2000/svg">
<path d="M74.4629 62.5C74.4629 69.1071 69.1071 74.4629 62.5 74.4629C55.8929 74.4629 50.5371 69.1071 50.5371 62.5C50.5371 55.8929 55.8929 50.5371 62.5 50.5371C69.1071 50.5371 74.4629 55.8929 74.4629 62.5Z" fill="url(#paint0_linear_43_117)"/>
<path d="M90.4769 41.3341C89.9018 39.7758 88.9844 38.3653 87.7923 37.2075C86.6345 36.0154 85.225 35.098 83.6658 34.5229C82.4012 34.0318 80.5015 33.4472 77.0024 33.2879C73.2173 33.1153 72.0824 33.0781 62.4999 33.0781C52.9164 33.0781 51.7816 33.1144 47.9974 33.287C44.4984 33.4472 42.5977 34.0318 41.3341 34.5229C39.7748 35.098 38.3643 36.0154 37.2075 37.2075C36.0154 38.3653 35.098 39.7748 34.522 41.3341C34.0308 42.5987 33.4462 44.4993 33.287 47.9984C33.1143 51.7825 33.0771 52.9174 33.0771 62.5009C33.0771 72.0834 33.1143 73.2183 33.287 77.0034C33.4462 80.5024 34.0308 82.4022 34.522 83.6667C35.098 85.226 36.0145 86.6355 37.2066 87.7933C38.3643 88.9854 39.7738 89.9028 41.3331 90.4779C42.5977 90.97 44.4984 91.5546 47.9974 91.7138C51.7816 91.8865 52.9155 91.9227 62.499 91.9227C72.0834 91.9227 73.2183 91.8865 77.0015 91.7138C80.5005 91.5546 82.4012 90.97 83.6658 90.4779C86.7957 89.2705 89.2695 86.7967 90.4769 83.6667C90.968 82.4022 91.5526 80.5024 91.7129 77.0034C91.8855 73.2183 91.9217 72.0834 91.9217 62.5009C91.9217 52.9174 91.8855 51.7825 91.7129 47.9984C91.5536 44.4993 90.969 42.5987 90.4769 41.3341ZM62.4999 80.9287C52.3213 80.9287 44.0702 72.6785 44.0702 62.4999C44.0702 52.3214 52.3213 44.0711 62.4999 44.0711C72.6775 44.0711 80.9287 52.3214 80.9287 62.4999C80.9287 72.6785 72.6775 80.9287 62.4999 80.9287ZM81.6573 47.6493C79.2789 47.6493 77.3505 45.721 77.3505 43.3425C77.3505 40.9641 79.2789 39.0357 81.6573 39.0357C84.0358 39.0357 85.9641 40.9641 85.9641 43.3425C85.9632 45.721 84.0358 47.6493 81.6573 47.6493Z" fill="url(#paint1_linear_43_117)"/>
<path d="M62.5 0C27.9875 0 0 27.9875 0 62.5C0 97.0125 27.9875 125 62.5 125C97.0125 125 125 97.0125 125 62.5C125 27.9875 97.0125 0 62.5 0ZM98.1722 77.2963C97.9986 81.1167 97.3911 83.725 96.5042 86.0081C94.6398 90.8289 90.8289 94.6398 86.0081 96.5042C83.7259 97.3911 81.1167 97.9977 77.2972 98.1722C73.4701 98.3467 72.2475 98.3887 62.501 98.3887C52.7534 98.3887 51.5318 98.3467 47.7037 98.1722C43.8843 97.9977 41.275 97.3911 38.9929 96.5042C36.5973 95.603 34.4286 94.1906 32.6357 92.3643C30.8104 90.5724 29.398 88.4027 28.4967 86.0081C27.6098 83.7259 27.0023 81.1167 26.8288 77.2972C26.6523 73.4692 26.6113 72.2466 26.6113 62.5C26.6113 52.7534 26.6523 51.5308 26.8278 47.7037C27.0014 43.8833 27.6079 41.275 28.4948 38.9919C29.3961 36.5973 30.8094 34.4276 32.6357 32.6357C34.4276 30.8094 36.5973 29.397 38.9919 28.4958C41.275 27.6089 43.8833 27.0023 47.7037 26.8278C51.5308 26.6533 52.7534 26.6113 62.5 26.6113C72.2466 26.6113 73.4692 26.6533 77.2963 26.8288C81.1167 27.0023 83.725 27.6089 86.0081 28.4948C88.4027 29.3961 90.5724 30.8094 92.3653 32.6357C94.1906 34.4286 95.6039 36.5973 96.5042 38.9919C97.3921 41.275 97.9986 43.8833 98.1731 47.7037C98.3477 51.5308 98.3887 52.7534 98.3887 62.5C98.3887 72.2466 98.3477 73.4692 98.1722 77.2963Z" fill="url(#paint2_linear_43_117)"/>
<defs>
<linearGradient id="paint0_linear_43_117" x1="62.5" y1="50.5371" x2="62.5" y2="74.4629" gradientUnits="userSpaceOnUse">
<stop stop-color="#00EC6D"/>
<stop offset="1" stop-color="#001974"/>
</linearGradient>
<linearGradient id="paint1_linear_43_117" x1="62.4994" y1="33.0781" x2="62.4994" y2="91.9227" gradientUnits="userSpaceOnUse">
<stop stop-color="#00EC6D"/>
<stop offset="1" stop-color="#001974"/>
</linearGradient>
<linearGradient id="paint2_linear_43_117" x1="62.5" y1="0" x2="62.5" y2="125" gradientUnits="userSpaceOnUse">
<stop stop-color="#00EC6D"/>
<stop offset="1" stop-color="#001974"/>
</linearGradient>
</defs>
</svg>
