<svg width="125" height="125" viewBox="0 0 125 125" fill="none" xmlns="http://www.w3.org/2000/svg">
<path d="M62.5 0C27.9875 0 0 27.9875 0 62.5C0 97.0125 27.9875 125 62.5 125C97.0125 125 125 97.0125 125 62.5C125 27.9875 97.0125 0 62.5 0ZM44.3382 94.4824H29.1166V48.6879H44.3382V94.4824ZM36.7279 42.4347H36.6287C31.5208 42.4347 28.2173 38.9185 28.2173 34.524C28.2173 30.0303 31.6219 26.6113 36.829 26.6113C42.0361 26.6113 45.2404 30.0303 45.3396 34.524C45.3396 38.9185 42.0361 42.4347 36.7279 42.4347ZM99.2241 94.4824H84.0044V69.9835C84.0044 63.8266 81.8005 59.6275 76.293 59.6275C72.0882 59.6275 69.5839 62.4599 68.4834 65.1941C68.0809 66.1726 67.9827 67.5402 67.9827 68.9087V94.4824H52.762C52.762 94.4824 52.9613 52.9842 52.762 48.6879H67.9827V55.172C70.0054 52.0515 73.6246 47.6131 81.7003 47.6131C91.7149 47.6131 99.2241 54.1582 99.2241 68.224V94.4824Z" fill="url(#paint0_linear_43_102)"/>
<defs>
<linearGradient id="paint0_linear_43_102" x1="62.5" y1="0" x2="62.5" y2="125" gradientUnits="userSpaceOnUse">
<stop stop-color="#00EC6D"/>
<stop offset="1" stop-color="#001974"/>
</linearGradient>
</defs>
</svg>
