<svg width="120" height="125" viewBox="0 0 120 125" fill="none" xmlns="http://www.w3.org/2000/svg">
<path d="M27.7205 80.4213C27.7205 78.3454 26.022 77.1074 23.0251 77.1074C21.8013 77.1074 20.9726 77.2098 20.5391 77.3078V83.9683C21.0524 84.0663 21.6833 84.0989 22.5531 84.0989C25.7475 84.0989 27.7205 82.7303 27.7205 80.4213Z" fill="url(#paint0_linear_43_19)"/>
<path d="M46.2726 77.1772C44.9306 77.1772 44.0633 77.2755 43.5503 77.3774V92.1283C44.0636 92.2305 44.8924 92.2305 45.6417 92.2305C51.0861 92.2631 54.6369 89.7216 54.6369 84.3362C54.6754 79.6532 51.4398 77.1772 46.2726 77.1772Z" fill="url(#paint1_linear_43_19)"/>
<path d="M82.7412 0H23.5413C14.8927 0 7.85371 5.97364 7.85371 13.304V62.4999H6.32149C2.83088 62.4999 0 64.8983 0 67.8611V100.374C0 103.336 2.83058 105.734 6.32149 105.734H7.85371V111.696C7.85371 119.034 14.8927 125 23.5413 125H104.317C112.96 125 120 119.034 120 111.696V31.487L82.7412 0ZM16.5839 73.7285C18.4365 73.463 21.0405 73.2628 24.7094 73.2628C28.417 73.2628 31.0596 73.863 32.8352 75.0686C34.5312 76.2047 35.6758 78.0799 35.6758 80.2868C35.6758 82.4931 34.8085 84.3688 33.2304 85.6395C31.1779 87.278 28.1425 88.0135 24.5917 88.0135C23.8014 88.0135 23.0931 87.9803 22.5391 87.9153V95.9773H16.5839V73.7285ZM104.317 116.852H23.5413C20.1925 116.852 17.4656 114.54 17.4656 111.696V105.734H92.7652C96.2564 105.734 99.0869 103.336 99.0869 100.374V67.8611C99.0869 64.8983 96.2564 62.4999 92.7652 62.4999H17.4656V13.304C17.4656 10.4682 20.1928 8.15558 23.5413 8.15558L79.147 8.10632V25.5372C79.147 30.6286 84.0182 34.7636 90.0263 34.7636L110.161 34.7146L110.388 111.696C110.388 114.54 107.665 116.852 104.317 116.852ZM39.5159 95.8751V73.7285C41.7246 73.4303 44.6035 73.2628 47.6416 73.2628C52.6908 73.2628 55.9649 74.031 58.5304 75.6693C61.2913 77.41 63.0256 80.1846 63.0256 84.1682C63.0256 88.483 61.173 91.462 58.6072 93.3004C55.8078 95.2739 51.5465 96.2098 46.3405 96.2098C43.2229 96.2098 41.0141 96.0423 39.5159 95.8751ZM82.5682 82.763V86.9101H73.0208V95.9773H66.9861V73.4303H83.2377V77.6101H73.0208V82.763H82.5682Z" fill="url(#paint2_linear_43_19)"/>
<defs>
<linearGradient id="paint0_linear_43_19" x1="24.1298" y1="77.1074" x2="24.1298" y2="84.0989" gradientUnits="userSpaceOnUse">
<stop stop-color="#00EC6D"/>
<stop offset="1" stop-color="#001974"/>
</linearGradient>
<linearGradient id="paint1_linear_43_19" x1="49.0938" y1="77.1772" x2="49.0938" y2="92.2308" gradientUnits="userSpaceOnUse">
<stop stop-color="#00EC6D"/>
<stop offset="1" stop-color="#001974"/>
</linearGradient>
<linearGradient id="paint2_linear_43_19" x1="60" y1="0" x2="60" y2="125" gradientUnits="userSpaceOnUse">
<stop stop-color="#00EC6D"/>
<stop offset="1" stop-color="#001974"/>
</linearGradient>
</defs>
</svg>
