<svg width="186" height="46" viewBox="0 0 186 46" fill="none" xmlns="http://www.w3.org/2000/svg">
<path d="M67.9602 22.3323C68.5914 21.3644 69.3804 20.607 70.3272 20.06C71.274 19.4919 72.326 19.2079 73.4832 19.2079V24.9202H71.9999C70.6533 24.9202 69.6434 25.2148 68.9701 25.8039C68.2968 26.372 67.9602 27.3819 67.9602 28.8337V37.0077H62.5634V19.3972H67.9602V22.3323ZM82.1853 37.2602C80.4601 37.2602 78.9031 36.892 77.5145 36.1556C76.1469 35.4192 75.0633 34.3672 74.2638 32.9996C73.4853 31.632 73.0961 30.0329 73.0961 28.2025C73.0961 26.393 73.4958 24.8045 74.2953 23.4369C75.0949 22.0483 76.1889 20.9857 77.5776 20.2493C78.9662 19.5129 80.5232 19.1447 82.2485 19.1447C83.9737 19.1447 85.5307 19.5129 86.9193 20.2493C88.308 20.9857 89.4021 22.0483 90.2016 23.4369C91.0011 24.8045 91.4009 26.393 91.4009 28.2025C91.4009 30.0119 90.9906 31.6109 90.17 32.9996C89.3705 34.3672 88.2659 35.4192 86.8562 36.1556C85.4676 36.892 83.9106 37.2602 82.1853 37.2602ZM82.1853 32.5893C83.2163 32.5893 84.0895 32.2106 84.8048 31.4531C85.5412 30.6957 85.9094 29.6121 85.9094 28.2025C85.9094 26.7928 85.5517 25.7092 84.8364 24.9518C84.1421 24.1943 83.2794 23.8156 82.2485 23.8156C81.1965 23.8156 80.3233 24.1943 79.629 24.9518C78.9347 25.6882 78.5875 26.7717 78.5875 28.2025C78.5875 29.6121 78.9241 30.6957 79.5974 31.4531C80.2917 32.2106 81.1544 32.5893 82.1853 32.5893ZM91.2973 28.2025C91.2973 26.372 91.6655 24.7729 92.4019 23.4053C93.1593 22.0377 94.2008 20.9857 95.5263 20.2493C96.8729 19.5129 98.4088 19.1447 100.134 19.1447C102.343 19.1447 104.184 19.7233 105.657 20.8805C107.151 22.0377 108.129 23.6683 108.592 25.7723H102.848C102.364 24.4258 101.428 23.7525 100.039 23.7525C99.0505 23.7525 98.2615 24.1417 97.6724 24.9202C97.0833 25.6777 96.7887 26.7717 96.7887 28.2025C96.7887 29.6332 97.0833 30.7378 97.6724 31.5163C98.2615 32.2737 99.0505 32.6524 100.039 32.6524C101.428 32.6524 102.364 31.9791 102.848 30.6326H108.592C108.129 32.6945 107.151 34.3146 105.657 35.4928C104.163 36.6711 102.322 37.2602 100.134 37.2602C98.4088 37.2602 96.8729 36.892 95.5263 36.1556C94.2008 35.4192 93.1593 34.3672 92.4019 32.9996C91.6655 31.632 91.2973 30.0329 91.2973 28.2025ZM120.347 37.0077L114.982 29.6227V37.0077H109.585V13.6533H114.982V26.5613L120.316 19.3972H126.975L119.653 28.234L127.038 37.0077H120.347ZM143.802 27.9184C143.802 28.4234 143.77 28.9494 143.707 29.4964H131.493C131.577 30.5905 131.924 31.4321 132.535 32.0212C133.166 32.5893 133.934 32.8733 134.839 32.8733C136.185 32.8733 137.121 32.3053 137.647 31.1691H143.391C143.097 32.3263 142.56 33.3678 141.782 34.2935C141.024 35.2193 140.067 35.9452 138.91 36.4712C137.753 36.9972 136.459 37.2602 135.028 37.2602C133.303 37.2602 131.767 36.892 130.42 36.1556C129.074 35.4192 128.022 34.3672 127.264 32.9996C126.507 31.632 126.128 30.0329 126.128 28.2025C126.128 26.372 126.496 24.7729 127.233 23.4053C127.99 22.0377 129.042 20.9857 130.389 20.2493C131.735 19.5129 133.282 19.1447 135.028 19.1447C136.732 19.1447 138.247 19.5024 139.573 20.2178C140.898 20.9331 141.929 21.9536 142.665 23.2791C143.423 24.6046 143.802 26.1511 143.802 27.9184ZM138.279 26.4982C138.279 25.5725 137.963 24.8361 137.332 24.289C136.701 23.742 135.912 23.4685 134.965 23.4685C134.06 23.4685 133.292 23.7315 132.661 24.2575C132.051 24.7835 131.672 25.5304 131.525 26.4982H138.279ZM154.57 32.4315V37.0077H151.824C149.868 37.0077 148.342 36.5343 147.248 35.5875C146.154 34.6197 145.607 33.0522 145.607 30.8851V23.8787H143.461V19.3972H145.607V15.1051H151.004V19.3972H154.539V23.8787H151.004V30.9482C151.004 31.4742 151.13 31.8529 151.383 32.0843C151.635 32.3158 152.056 32.4315 152.645 32.4315H154.57ZM161.623 28.234C161.623 26.4877 161.981 24.9307 162.696 23.5631C163.433 22.1955 164.411 21.133 165.631 20.3756C166.873 19.5971 168.219 19.2079 169.671 19.2079C170.786 19.2079 171.785 19.4077 172.669 19.8075C173.553 20.1862 174.268 20.7227 174.815 21.4171V19.3972H180.212V45.4027H174.815V34.7985C174.205 35.5349 173.458 36.124 172.574 36.5659C171.712 37.0077 170.723 37.2286 169.608 37.2286C168.177 37.2286 166.852 36.8499 165.631 36.0925C164.411 35.335 163.433 34.2725 162.696 32.9049C161.981 31.5373 161.623 29.9803 161.623 28.234ZM174.815 28.2025C174.815 27.2557 174.626 26.4667 174.247 25.8355C173.889 25.1832 173.416 24.6993 172.827 24.3837C172.238 24.0471 171.617 23.8787 170.965 23.8787C170.334 23.8787 169.723 24.0471 169.134 24.3837C168.545 24.6993 168.061 25.1832 167.683 25.8355C167.304 26.4877 167.115 27.2872 167.115 28.234C167.115 29.1808 167.304 29.9803 167.683 30.6326C168.061 31.2638 168.545 31.7477 169.134 32.0843C169.723 32.3999 170.334 32.5577 170.965 32.5577C171.596 32.5577 172.206 32.3999 172.795 32.0843C173.405 31.7477 173.889 31.2533 174.247 30.601C174.626 29.9488 174.815 29.1493 174.815 28.2025Z" fill="#0D114F"/>
<path d="M158.207 37.2602C157.261 37.2602 156.482 36.9867 155.872 36.4396C155.283 35.8715 154.988 35.1772 154.988 34.3567C154.988 33.5151 155.283 32.8102 155.872 32.2421C156.482 31.6741 157.261 31.39 158.207 31.39C159.133 31.39 159.891 31.6741 160.48 32.2421C161.09 32.8102 161.395 33.5151 161.395 34.3567C161.395 35.1772 161.09 35.8715 160.48 36.4396C159.891 36.9867 159.133 37.2602 158.207 37.2602Z" fill="url(#paint0_linear_1624_0)"/>
<rect width="48.8189" height="44" rx="7.88976" fill="url(#paint1_linear_1624_0)"/>
<g filter="url(#filter0_di_1624_0)">
<path d="M37.0917 32.5372H32.6719C32.4985 32.5372 32.3504 32.3357 32.3313 32.1633C32.0862 29.9498 29.6312 28.331 27.4127 28.5267C27.3862 28.5291 27.3596 28.5318 27.333 28.5349C25.7301 28.7221 24.3436 29.8303 22.7391 30.0038C21.5038 30.1373 20.448 30.0709 19.1997 29.8316C18.3887 29.6761 17.599 29.4131 16.8575 29.0495C14.7087 27.9957 13.5721 26.9273 12.5318 25.3065C11.9086 24.3354 11.457 23.2494 11.3061 22.1055C11.2032 21.3252 11.2071 20.6224 11.2917 19.8653C11.4493 18.4565 11.952 17.0948 12.7548 15.9264C13.8353 14.3541 15.0167 13.3827 16.9617 12.4577C17.6362 12.1368 18.3496 11.8997 19.0806 11.7464C21.4386 11.252 22.9054 11.3693 25.1445 12.0018C26.3759 12.3497 27.7156 13.1033 28.8447 14.0853C31.1561 16.0955 31.399 19.3999 31.4613 22.4625C31.4665 22.7163 31.2367 22.9104 30.9863 22.8684C29.3984 22.6017 28.2901 22.579 26.7382 22.8071C26.3771 22.8601 26.0895 22.4758 26.1958 22.1267C26.2233 22.0361 26.2473 21.9465 26.2679 21.8578C26.8318 19.4262 24.9267 16.723 22.4456 16.4498C20.9199 16.2818 19.4001 16.8293 18.2814 17.9549C17.6078 18.5272 17.2453 19.4357 17.1448 20.3966C16.8976 22.7594 18.9596 24.7984 21.3154 25.105C22.0975 25.2068 22.8233 25.1081 23.5889 24.8147C24.8866 24.3173 26.195 23.7527 27.5831 23.8187C32.8478 24.069 36.5614 26.0576 37.5188 32.0408C37.5606 32.302 37.3562 32.5372 37.0917 32.5372Z" fill="#FAFAFA"/>
</g>
<defs>
<filter id="filter0_di_1624_0" x="9.59615" y="11.44" width="29.5605" height="24.362" filterUnits="userSpaceOnUse" color-interpolation-filters="sRGB">
<feFlood flood-opacity="0" result="BackgroundImageFix"/>
<feColorMatrix in="SourceAlpha" type="matrix" values="0 0 0 0 0 0 0 0 0 0 0 0 0 0 0 0 0 0 127 0" result="hardAlpha"/>
<feOffset dy="1.63237"/>
<feGaussianBlur stdDeviation="0.816183"/>
<feColorMatrix type="matrix" values="0 0 0 0 0 0 0 0 0 0 0 0 0 0 0 0 0 0 0.07 0"/>
<feBlend mode="normal" in2="BackgroundImageFix" result="effect1_dropShadow_1624_0"/>
<feBlend mode="normal" in="SourceGraphic" in2="effect1_dropShadow_1624_0" result="shape"/>
<feColorMatrix in="SourceAlpha" type="matrix" values="0 0 0 0 0 0 0 0 0 0 0 0 0 0 0 0 0 0 127 0" result="hardAlpha"/>
<feOffset dy="1.63237"/>
<feGaussianBlur stdDeviation="1.02023"/>
<feComposite in2="hardAlpha" operator="arithmetic" k2="-1" k3="1"/>
<feColorMatrix type="matrix" values="0 0 0 0 0.219608 0 0 0 0 0.533333 0 0 0 0 1 0 0 0 0.13 0"/>
<feBlend mode="normal" in2="shape" result="effect2_innerShadow_1624_0"/>
</filter>
<linearGradient id="paint0_linear_1624_0" x1="210.691" y1="-59.2553" x2="200.177" y2="54.5632" gradientUnits="userSpaceOnUse">
<stop stop-color="#5498FF"/>
<stop offset="0.515625" stop-color="#428EFF"/>
<stop offset="1" stop-color="#297FFF"/>
</linearGradient>
<linearGradient id="paint1_linear_1624_0" x1="58.4318" y1="-66.5618" x2="28.2829" y2="50.384" gradientUnits="userSpaceOnUse">
<stop stop-color="#5498FF"/>
<stop offset="0.515625" stop-color="#428EFF"/>
<stop offset="1" stop-color="#297FFF"/>
</linearGradient>
</defs>
</svg>
