<svg width="576" height="68" viewBox="0 0 576 68" fill="none" xmlns="http://www.w3.org/2000/svg">
<path d="M17.424 50C17.76 50 18.096 49.664 18.432 48.992C18.768 48.32 18.936 47.216 18.936 45.68V16.88C18.936 15.824 18.816 15.2 18.576 15.008C18.336 14.816 17.496 14.72 16.056 14.72H10.8C8.016 14.72 5.76 15.032 4.032 15.656C2.352 16.232 1.248 16.784 0.72 17.312L2.16 8.96V6.8H46.8V8.96L48.24 17.312C47.712 16.784 46.584 16.232 44.856 15.656C43.176 15.032 40.944 14.72 38.16 14.72H32.976C31.488 14.72 30.624 14.816 30.384 15.008C30.144 15.2 30.024 15.824 30.024 16.88V45.68C30.024 47.216 30.192 48.32 30.528 48.992C30.864 49.664 31.2 50 31.536 50H17.424ZM52.1055 50C52.4415 50 52.7535 49.664 53.0415 48.992C53.3775 48.32 53.5455 47.216 53.5455 45.68V4.64C53.5455 3.104 53.3775 2.024 53.0415 1.4C52.7535 0.727999 52.4415 0.367998 52.1055 0.319996H63.7695V19.976L63.6255 20.912L63.7695 21.056C63.9135 20.72 64.3695 20.12 65.1375 19.256C65.9055 18.392 67.0095 17.576 68.4495 16.808C69.8895 15.992 71.6655 15.584 73.7775 15.584C78.2415 15.584 81.6495 16.856 84.0015 19.4C86.4015 21.944 87.6015 25.928 87.6015 31.352V45.68C87.6015 47.216 87.7455 48.32 88.0335 48.992C88.3695 49.664 88.7055 50 89.0415 50H75.9375C76.2735 50 76.5855 49.664 76.8735 48.992C77.2095 48.32 77.3775 47.216 77.3775 45.68V31.568C77.3775 28.16 76.8495 25.856 75.7935 24.656C74.7375 23.408 73.3935 22.784 71.7615 22.784C69.6975 22.784 67.8495 23.528 66.2175 25.016C64.5855 26.456 63.7695 28.856 63.7695 32.216V45.68C63.7695 47.216 63.9135 48.32 64.2015 48.992C64.5375 49.664 64.8735 50 65.2095 50H52.1055ZM113.502 50.72C108.462 50.72 104.502 50.024 101.622 48.632C98.7898 47.24 96.7978 45.248 95.6458 42.656C94.4938 40.016 93.9178 36.872 93.9178 33.224C93.9178 27.8 95.4298 23.504 98.4538 20.336C101.478 17.168 106.11 15.584 112.35 15.584C115.998 15.584 118.95 16.088 121.206 17.096C123.51 18.104 125.262 19.448 126.462 21.128C127.662 22.808 128.478 24.68 128.91 26.744C129.39 28.76 129.63 30.8 129.63 32.864V36.248C129.63 36.104 128.958 35.96 127.614 35.816C126.318 35.624 124.11 35.528 120.99 35.528H104.286C104.286 38.168 105.078 40.16 106.662 41.504C108.294 42.8 110.934 43.448 114.582 43.448C117.654 43.448 120.39 43.088 122.79 42.368C125.238 41.6 127.014 40.88 128.118 40.208V42.368L128.838 47.84C127.926 48.464 126.174 49.112 123.582 49.784C120.99 50.408 117.63 50.72 113.502 50.72ZM106.95 29.336H119.406C119.406 28.28 119.166 27.248 118.686 26.24C118.254 25.232 117.534 24.416 116.526 23.792C115.518 23.12 114.126 22.784 112.35 22.784C109.71 22.784 107.814 23.336 106.662 24.44C105.51 25.544 104.934 26.696 104.934 27.896C104.934 28.376 105.078 28.736 105.366 28.976C105.654 29.216 106.182 29.336 106.95 29.336ZM153.436 50C153.772 50 154.108 49.664 154.444 48.992C154.78 48.32 154.948 47.216 154.948 45.68V11.12C154.948 9.584 154.78 8.504 154.444 7.88C154.108 7.208 153.772 6.848 153.436 6.8H180.364C184.108 6.8 187.036 7.232 189.148 8.096C191.26 8.96 192.748 10.208 193.612 11.84C194.476 13.424 194.908 15.296 194.908 17.456C194.908 20.096 194.26 22.088 192.964 23.432C191.716 24.728 190.396 25.616 189.004 26.096V26.24C195.292 27.68 198.436 31.424 198.436 37.472C198.436 39.536 198.028 41.528 197.212 43.448C196.396 45.368 194.884 46.952 192.676 48.2C190.516 49.4 187.372 50 183.244 50H153.436ZM168.988 24.296H177.484C179.788 24.296 181.42 23.912 182.38 23.144C183.388 22.328 183.892 21.128 183.892 19.544C183.892 17.96 183.412 16.784 182.452 16.016C181.54 15.248 179.908 14.864 177.556 14.864H168.916C167.476 14.864 166.636 14.96 166.396 15.152C166.156 15.296 166.036 15.92 166.036 17.024V22.136C166.036 23.192 166.156 23.816 166.396 24.008C166.684 24.2 167.548 24.296 168.988 24.296ZM168.916 42.008H179.716C182.452 42.008 184.396 41.624 185.548 40.856C186.748 40.04 187.348 38.744 187.348 36.968C187.348 35.288 186.7 33.992 185.404 33.08C184.108 32.12 181.972 31.64 178.996 31.64H168.988C167.548 31.64 166.684 31.736 166.396 31.928C166.156 32.12 166.036 32.768 166.036 33.872V39.848C166.036 40.904 166.156 41.528 166.396 41.72C166.684 41.912 167.524 42.008 168.916 42.008ZM222.346 50.72C217.306 50.72 213.346 50.024 210.466 48.632C207.634 47.24 205.642 45.248 204.49 42.656C203.338 40.016 202.762 36.872 202.762 33.224C202.762 27.8 204.274 23.504 207.298 20.336C210.322 17.168 214.954 15.584 221.194 15.584C224.842 15.584 227.794 16.088 230.05 17.096C232.354 18.104 234.106 19.448 235.306 21.128C236.506 22.808 237.322 24.68 237.754 26.744C238.234 28.76 238.474 30.8 238.474 32.864V36.248C238.474 36.104 237.802 35.96 236.458 35.816C235.162 35.624 232.954 35.528 229.834 35.528H213.13C213.13 38.168 213.922 40.16 215.506 41.504C217.138 42.8 219.778 43.448 223.426 43.448C226.498 43.448 229.234 43.088 231.634 42.368C234.082 41.6 235.858 40.88 236.962 40.208V42.368L237.682 47.84C236.77 48.464 235.018 49.112 232.426 49.784C229.834 50.408 226.474 50.72 222.346 50.72ZM215.794 29.336H228.25C228.25 28.28 228.01 27.248 227.53 26.24C227.098 25.232 226.378 24.416 225.37 23.792C224.362 23.12 222.97 22.784 221.194 22.784C218.554 22.784 216.658 23.336 215.506 24.44C214.354 25.544 213.778 26.696 213.778 27.896C213.778 28.376 213.922 28.736 214.21 28.976C214.498 29.216 215.026 29.336 215.794 29.336ZM262.623 50.72C258.351 50.72 254.751 50.48 251.823 50C248.895 49.52 246.879 49.04 245.775 48.56V46.4L244.263 39.344C245.511 40.256 247.839 41.168 251.247 42.08C254.655 42.992 258.831 43.448 263.775 43.448C266.031 43.448 267.591 43.232 268.455 42.8C269.367 42.368 269.823 41.624 269.823 40.568C269.823 39.752 269.511 39.128 268.887 38.696C268.311 38.264 267.255 37.928 265.719 37.688C264.183 37.4 261.951 37.064 259.023 36.68C255.327 36.2 252.399 35.528 250.239 34.664C248.079 33.752 246.543 32.6 245.631 31.208C244.767 29.768 244.335 28.016 244.335 25.952C244.335 24.032 244.791 22.304 245.703 20.768C246.663 19.184 248.295 17.936 250.599 17.024C252.951 16.064 256.215 15.584 260.391 15.584C264.327 15.584 267.783 15.824 270.759 16.304C273.735 16.784 275.871 17.264 277.167 17.744V19.904L278.607 26.24C277.503 25.52 275.343 24.776 272.127 24.008C268.911 23.24 264.831 22.856 259.887 22.856C257.967 22.856 256.599 23.048 255.783 23.432C254.967 23.816 254.559 24.488 254.559 25.448C254.559 26.072 254.823 26.6 255.351 27.032C255.879 27.416 256.911 27.776 258.447 28.112C260.031 28.448 262.383 28.832 265.503 29.264C269.583 29.792 272.655 30.536 274.719 31.496C276.783 32.408 278.175 33.56 278.895 34.952C279.615 36.296 279.975 37.928 279.975 39.848C279.975 43.544 278.583 46.28 275.799 48.056C273.015 49.832 268.623 50.72 262.623 50.72ZM299.375 50.72C296.063 50.72 293.663 50.024 292.175 48.632C290.687 47.192 289.943 44.864 289.943 41.648V23.504H283.463V16.304C285.671 16.304 287.399 16.04 288.647 15.512C289.895 14.936 290.783 13.952 291.311 12.56C291.839 11.168 292.103 9.224 292.103 6.728H300.167V16.304H312.479C312.143 17.264 311.807 18.464 311.471 19.904C311.183 21.296 311.039 22.496 311.039 23.504H300.167V37.688C300.167 39.896 300.335 41.408 300.671 42.224C301.007 43.04 301.799 43.448 303.047 43.448C303.863 43.448 304.751 43.16 305.711 42.584C306.719 42.008 307.679 41.312 308.591 40.496C309.551 39.632 310.343 38.816 310.967 38.048V40.28L311.687 47.264C310.823 48.032 309.311 48.8 307.151 49.568C304.991 50.336 302.399 50.72 299.375 50.72ZM334.069 50C334.405 50 334.741 49.664 335.077 48.992C335.413 48.32 335.581 47.216 335.581 45.68V11.12C335.581 9.584 335.413 8.504 335.077 7.88C334.741 7.208 334.405 6.848 334.069 6.8H360.997C364.741 6.8 367.669 7.232 369.781 8.096C371.893 8.96 373.381 10.208 374.245 11.84C375.109 13.424 375.541 15.296 375.541 17.456C375.541 20.096 374.893 22.088 373.597 23.432C372.349 24.728 371.029 25.616 369.637 26.096V26.24C375.925 27.68 379.069 31.424 379.069 37.472C379.069 39.536 378.661 41.528 377.845 43.448C377.029 45.368 375.517 46.952 373.309 48.2C371.149 49.4 368.005 50 363.877 50H334.069ZM349.621 24.296H358.117C360.421 24.296 362.053 23.912 363.013 23.144C364.021 22.328 364.525 21.128 364.525 19.544C364.525 17.96 364.045 16.784 363.085 16.016C362.173 15.248 360.541 14.864 358.189 14.864H349.549C348.109 14.864 347.269 14.96 347.029 15.152C346.789 15.296 346.669 15.92 346.669 17.024V22.136C346.669 23.192 346.789 23.816 347.029 24.008C347.317 24.2 348.181 24.296 349.621 24.296ZM349.549 42.008H360.349C363.085 42.008 365.029 41.624 366.181 40.856C367.381 40.04 367.981 38.744 367.981 36.968C367.981 35.288 367.333 33.992 366.037 33.08C364.741 32.12 362.605 31.64 359.629 31.64H349.621C348.181 31.64 347.317 31.736 347.029 31.928C346.789 32.12 346.669 32.768 346.669 33.872V39.848C346.669 40.904 346.789 41.528 347.029 41.72C347.317 41.912 348.157 42.008 349.549 42.008ZM398.946 50.72C396.162 50.72 393.786 50.24 391.818 49.28C389.85 48.272 388.362 46.568 387.354 44.168C386.346 41.72 385.842 38.336 385.842 34.016V20.624C385.842 19.088 385.674 17.984 385.338 17.312C385.05 16.64 384.738 16.304 384.402 16.304H397.65C397.314 16.304 396.954 16.64 396.57 17.312C396.234 17.984 396.066 19.088 396.066 20.624V35.024C396.066 38.048 396.618 40.208 397.722 41.504C398.874 42.8 400.194 43.448 401.682 43.448C403.794 43.448 405.426 42.968 406.578 42.008C407.73 41 408.546 39.704 409.026 38.12C409.506 36.488 409.746 34.784 409.746 33.008V20.624C409.746 19.088 409.578 18.008 409.242 17.384C408.954 16.712 408.642 16.352 408.306 16.304H419.97V45.68C419.97 47.216 420.114 48.32 420.402 48.992C420.738 49.664 421.074 50 421.41 50H409.746V47.192L409.89 45.752L409.746 45.608C408.786 47.096 407.37 48.32 405.498 49.28C403.674 50.24 401.49 50.72 398.946 50.72ZM427.293 50C427.629 50 427.941 49.664 428.229 48.992C428.565 48.32 428.733 47.216 428.733 45.68V21.344C428.733 19.808 428.565 18.728 428.229 18.104C427.941 17.432 427.629 17.072 427.293 17.024C429.405 17.024 431.565 16.88 433.773 16.592C435.981 16.256 437.709 15.92 438.957 15.584V18.464L438.813 19.688L438.957 19.832C439.293 19.304 439.821 18.728 440.541 18.104C441.309 17.432 442.269 16.856 443.421 16.376C444.621 15.848 446.013 15.584 447.597 15.584C449.949 15.584 452.037 15.92 453.861 16.592C455.685 17.216 456.981 17.864 457.749 18.536L455.589 28.184V30.344C454.869 29.336 453.885 28.304 452.637 27.248C451.437 26.192 450.093 25.304 448.605 24.584C447.165 23.864 445.677 23.504 444.141 23.504C442.413 23.504 441.117 24.128 440.253 25.376C439.389 26.624 438.957 28.592 438.957 31.28V45.68C438.957 47.216 439.101 48.32 439.389 48.992C439.725 49.664 440.061 50 440.397 50H427.293ZM477.551 67.568C473.375 67.568 469.727 67.16 466.607 66.344C463.487 65.528 461.255 64.736 459.911 63.968L461.351 53.168V51.08C462.023 52.376 463.079 53.744 464.519 55.184C465.959 56.624 467.759 57.848 469.919 58.856C472.079 59.864 474.527 60.368 477.263 60.368C482.687 60.368 485.399 56.96 485.399 50.144V48.992L485.543 47.696L485.399 47.552C484.391 48.608 482.903 49.4 480.935 49.928C479.015 50.456 477.071 50.72 475.103 50.72C471.215 50.72 468.095 49.952 465.743 48.416C463.439 46.88 461.759 44.792 460.703 42.152C459.695 39.512 459.191 36.536 459.191 33.224C459.191 29.864 459.695 26.864 460.703 24.224C461.711 21.584 463.367 19.496 465.671 17.96C468.023 16.376 471.167 15.584 475.103 15.584C477.119 15.584 479.063 15.8 480.935 16.232C482.855 16.616 484.343 17.264 485.399 18.176L485.543 18.104L485.399 16.736V16.304H497.063C496.727 16.352 496.391 16.712 496.055 17.384C495.767 18.056 495.623 19.184 495.623 20.768V48.344C495.623 55.304 494.135 60.248 491.159 63.176C488.231 66.104 483.695 67.568 477.551 67.568ZM477.047 43.448C478.727 43.448 480.191 43.16 481.439 42.584C482.687 42.008 483.647 40.976 484.319 39.488C485.039 38 485.399 35.912 485.399 33.224C485.399 29.24 484.631 26.504 483.095 25.016C481.559 23.528 479.543 22.784 477.047 22.784C474.647 22.784 472.751 23.576 471.359 25.16C470.015 26.744 469.343 29.456 469.343 33.296C469.343 37.136 470.015 39.8 471.359 41.288C472.703 42.728 474.599 43.448 477.047 43.448ZM522.439 50.72C517.399 50.72 513.439 50.024 510.559 48.632C507.727 47.24 505.735 45.248 504.583 42.656C503.431 40.016 502.855 36.872 502.855 33.224C502.855 27.8 504.367 23.504 507.391 20.336C510.415 17.168 515.047 15.584 521.287 15.584C524.935 15.584 527.887 16.088 530.143 17.096C532.447 18.104 534.199 19.448 535.399 21.128C536.599 22.808 537.415 24.68 537.847 26.744C538.327 28.76 538.567 30.8 538.567 32.864V36.248C538.567 36.104 537.895 35.96 536.551 35.816C535.255 35.624 533.047 35.528 529.927 35.528H513.223C513.223 38.168 514.015 40.16 515.599 41.504C517.231 42.8 519.871 43.448 523.519 43.448C526.591 43.448 529.327 43.088 531.727 42.368C534.175 41.6 535.951 40.88 537.055 40.208V42.368L537.775 47.84C536.863 48.464 535.111 49.112 532.519 49.784C529.927 50.408 526.567 50.72 522.439 50.72ZM515.887 29.336H528.343C528.343 28.28 528.103 27.248 527.623 26.24C527.191 25.232 526.471 24.416 525.463 23.792C524.455 23.12 523.063 22.784 521.287 22.784C518.647 22.784 516.751 23.336 515.599 24.44C514.447 25.544 513.871 26.696 513.871 27.896C513.871 28.376 514.015 28.736 514.303 28.976C514.591 29.216 515.119 29.336 515.887 29.336ZM544.645 50C544.981 50 545.293 49.664 545.581 48.992C545.917 48.32 546.085 47.216 546.085 45.68V21.344C546.085 19.808 545.917 18.728 545.581 18.104C545.293 17.432 544.981 17.072 544.645 17.024C546.757 17.024 548.917 16.88 551.125 16.592C553.333 16.256 555.061 15.92 556.309 15.584V18.464L556.165 19.688L556.309 19.832C556.645 19.304 557.173 18.728 557.893 18.104C558.661 17.432 559.621 16.856 560.773 16.376C561.973 15.848 563.365 15.584 564.949 15.584C567.301 15.584 569.389 15.92 571.213 16.592C573.037 17.216 574.333 17.864 575.101 18.536L572.941 28.184V30.344C572.221 29.336 571.237 28.304 569.989 27.248C568.789 26.192 567.445 25.304 565.957 24.584C564.517 23.864 563.029 23.504 561.493 23.504C559.765 23.504 558.469 24.128 557.605 25.376C556.741 26.624 556.309 28.592 556.309 31.28V45.68C556.309 47.216 556.453 48.32 556.741 48.992C557.077 49.664 557.413 50 557.749 50H544.645Z" fill="black"/>
</svg>
